PathFileType	4	(X/Y/Z)	Patient4_TMGait_0pt4_02_left_18.trc.trc
DataRate	CameraRate	NumFrames	NumMarkers	Units	OrigDataRate	OrigDataStartFrame	OrigNumFrames
74.074074074074	74.074074074074	4	33	mm	74.074074074074	71	       141
Frame#	Time	Sacral			L.Shoulder			Chest			R.Shoulder			Neck			R.ASIS			L.ASIS			R.Thigh.Superior			R.Thigh.Lateral			R.Thigh.Inferior			R.Patella			L.Thigh.Superior			L.Thigh.Lateral			L.Thigh.Inferior			L.Patella			L.Shank.Superior			L.Shank.Lateral			L.Shank.Inferior			R.Shank.Superior			R.Shank.Lateral			R.Shank.Inferior			R.Heel			R.Midfoot.Superior			R.Midfoot.Lateral			R.Toe			L.Heel			L.Midfoot.Lateral			L.Midfoot.Superior			L.Toe			L.Elbow			L.Wrist			R.Elbow			R.Wrist			
		X1	Y1	Z1	X2	Y2	Z2	X3	Y3	Z3	X4	Y4	Z4	X5	Y5	Z5	X6	Y6	Z6	X7	Y7	Z7	X8	Y8	Z8	X9	Y9	Z9	X10	Y10	Z10	X11	Y11	Z11	X12	Y12	Z12	X13	Y13	Z13	X14	Y14	Z14	X15	Y15	Z15	X16	Y16	Z16	X17	Y17	Z17	X18	Y18	Z18	X19	Y19	Z19	X20	Y20	Z20	X21	Y21	Z21	X22	Y22	Z22	X23	Y23	Z23	X24	Y24	Z24	X25	Y25	Z25	X26	Y26	Z26	X27	Y27	Z27	X28	Y28	Z28	X29	Y29	Z29	X30	Y30	Z30	X31	Y31	Z31	X32	Y32	Z32	X33	Y33	Z33	

71	25.065000000000	861.675732523403	1006.133777482915	431.536763461970	1075.285944160133	1422.248451299173	246.835560750273	1154.031417285378	1362.656999805516	423.402665313629	1049.457818021804	1445.671795083258	580.945176123336	1038.030527390987	1491.974017964155	396.453581049657	1078.558412263629	943.313599513115	571.248955562813	1091.700717532441	959.513838274861	295.330450400995	1135.871225387941	751.978809117014	552.464361679072	1075.305806217588	639.750716176199	626.625533448834	1161.302837764039	590.415514913225	549.698040976922	1186.287966667015	514.454448273329	567.503221378546	1095.985520445316	733.726785021765	323.815764533587	986.771182053160	635.551279107524	253.997077526624	1048.695469597385	544.373956325883	318.937421586849	1034.839041707367	478.893197112425	326.734942183176	1004.286491214837	411.356003240374	316.911061179467	905.492233311861	305.403192709956	263.739036175118	945.320571358561	189.622395718750	335.132284282890	1175.516122049790	430.944494823496	581.649124386418	1129.137136232173	316.295044102010	647.575257100002	1205.657920336134	233.992380012661	599.772945463041	1126.183051516157	45.007755372270	575.470318167312	1287.736845229870	121.322852039704	614.563195837418	1210.819566660901	45.316353369100	648.683899612395	1412.923068778769	85.918721340477	638.561531681427	808.942257401863	39.075123950244	378.602767724611	881.135508603665	35.004079446127	296.640903130051	965.210125956264	95.665984383393	322.799828669010	1093.509306704559	41.764926382049	291.996817228368	1116.086657488517	1083.486160121655	107.840948950987	1336.462384800522	940.640603019445	120.190561138958	932.509233214771	1123.832608598000	707.493259205249	968.608925724686	867.272406774019	746.316230954504	
72	25.078500000000	863.445098870536	1004.542401697417	434.102942097413	1074.664937189388	1422.000951989350	250.267698100323	1154.060484594427	1362.351334382324	426.532648252462	1049.294356879599	1444.410951859284	584.459101317494	1037.290465253515	1491.149836955168	400.159322415612	1080.737734033940	942.020067273599	573.329898227008	1093.369560204238	958.799301016821	297.464366083138	1137.955322445698	750.210315171207	554.589526860445	1075.569499337600	637.455732307637	627.080182464905	1162.153764256209	588.694517962869	550.726602069136	1186.202714416504	512.395000106284	567.861977816683	1096.072063417968	732.436379731686	325.194757533793	985.423835375919	635.374005466296	255.470277048026	1046.479407957242	543.493396842921	320.014955072258	1032.090798641715	478.040839113321	327.675426890279	1001.007565304323	410.843286305648	317.740717214330	901.283121535870	305.730836170085	264.427550197845	940.474599387083	189.300222833717	335.343601930293	1174.576263044741	428.094799779399	581.378025783727	1126.174576108767	313.678155467272	645.991524999819	1201.854687965601	230.793866000844	598.317795197492	1119.901223852312	44.293591716635	572.322602823651	1282.016158849754	117.326050652784	612.916675683831	1203.537384380267	43.457415537070	646.666012926135	1406.365486138438	79.900743869326	638.560501819318	803.506186043928	39.067541583817	378.596957182867	875.706333111463	35.008625791415	296.672557533337	959.765079332540	95.637030081296	322.848523684156	1088.069458427977	41.660475752240	291.977111420323	1117.552605169765	1083.363000253760	111.464996384611	1339.895407045314	943.752530437669	124.421826994211	935.612733220079	1120.927702913663	710.180266048848	976.478048848831	864.559892714930	746.200335409400	
73	25.092000000000	865.312275309539	1002.943531547266	436.861809177289	1074.038907968233	1421.806706122587	253.947731355115	1154.143350106265	1362.091691259447	429.888275414817	1049.180978652552	1443.115784146685	588.236852822138	1036.569408500541	1490.338235540981	404.134724094495	1083.163159002782	940.793887224487	575.496804348644	1095.023949591839	958.067556941164	299.745835882939	1140.770818900946	748.789064591560	556.656041590162	1076.636658897129	635.402588785516	627.432126599484	1163.893193547685	587.372839196472	551.707968626825	1186.962078787436	510.418444736193	568.076933890090	1096.302688781819	731.179193026863	326.608128427990	984.234291611175	635.212210001523	257.089047663119	1044.531842089999	542.634006192575	321.174692522387	1029.666871841604	477.128508499780	328.704457074146	997.964207336753	410.301693970335	318.659347981037	897.199199816020	306.132930287244	265.234545913971	935.711537334473	188.994160798180	335.590700954990	1174.172113382596	425.146821512971	580.961825940188	1123.319518829885	311.255577379658	644.506393087345	1197.480774691050	227.345282823399	596.757843727517	1111.864071674914	43.782301152311	569.500555329684	1274.900725885932	113.017739466146	611.113977957576	1194.645919909290	41.668790352178	644.852391023784	1398.374532574818	73.164830240717	638.307629724799	798.071867798140	39.095388976879	378.589761107704	870.295230662973	35.031475555569	296.717777115505	954.347980442127	95.625109622775	322.900580313476	1082.651485901572	41.537336027561	291.947134286631	1118.593869940038	1083.281131854040	115.183653872062	1342.635964758142	946.568223460560	128.661479160186	939.004204426327	1117.999778292213	713.270745858736	985.121054865382	862.018761051059	746.456155854657	
74	25.105500000000	867.237926803236	1001.407903619617	439.789359969362	1073.452028945838	1421.698277444701	257.852982954956	1154.299408833002	1361.899603170248	433.453217336901	1049.145201175045	1441.831159626445	592.254916989955	1035.913115645380	1489.586155037319	408.355907510764	1085.772764330510	939.698774149940	577.752579222187	1096.639849450565	957.367851745023	302.172409108548	1144.140364433370	747.706613756306	558.661276255884	1078.403561156980	633.668502401451	627.774441190509	1166.342485081948	586.456925381925	552.652691465788	1188.400500077167	508.613040221218	568.161429858829	1096.708706907998	730.010252164421	328.064906619760	983.267243688564	635.077254644665	258.860005756051	1042.949261619002	541.818652087032	322.420717369215	1027.681409641988	476.156757947474	329.815601640455	995.242928544478	409.731342569845	319.668902887903	893.309886002548	306.635722322605	266.168207888983	931.072377305542	188.726398588991	335.871920207667	1174.305339370342	422.282576635265	580.494426163586	1120.869450799087	309.128937909161	643.293080424931	1192.989411705832	223.902497051889	595.220084484806	1102.956272182334	43.417391774248	567.177853525910	1267.115207945366	108.820842483927	609.288939706607	1185.081659366641	40.082474801772	643.351338807233	1389.771822903557	66.449654581007	637.826589972180	792.647274412697	39.210310543456	378.575863660179	864.912400467570	35.090165310396	296.774915434480	948.985865704596	95.635810084570	322.946709990003	1077.268727936646	41.386293630497	291.903826172301	1119.201473631104	1083.250105051484	118.994061856692	1344.655586177120	949.028498963196	132.871080845133	942.646724121514	1115.117348053464	716.715773024798	994.445407733741	859.749914553492	747.115744543353	
